<svg width="120" height="20" viewBox="0 0 120 20" fill="none" xmlns="http://www.w3.org/2000/svg">
<path d="M17.8125 10C17.8125 10.2486 17.7137 10.4871 17.5379 10.6629C17.3621 10.8387 17.1236 10.9375 16.875 10.9375H3.125C2.87636 10.9375 2.6379 10.8387 2.46209 10.6629C2.28627 10.4871 2.1875 10.2486 2.1875 10C2.1875 9.75136 2.28627 9.5129 2.46209 9.33709C2.6379 9.16127 2.87636 9.0625 3.125 9.0625H16.875C17.1236 9.0625 17.3621 9.16127 17.5379 9.33709C17.7137 9.5129 17.8125 9.75136 17.8125 10ZM3.125 5.9375H16.875C17.1236 5.9375 17.3621 5.83873 17.5379 5.66291C17.7137 5.4871 17.8125 5.24864 17.8125 5C17.8125 4.75136 17.7137 4.5129 17.5379 4.33709C17.3621 4.16127 17.1236 4.0625 16.875 4.0625H3.125C2.87636 4.0625 2.6379 4.16127 2.46209 4.33709C2.28627 4.5129 2.1875 4.75136 2.1875 5C2.1875 5.24864 2.28627 5.4871 2.46209 5.66291C2.6379 5.83873 2.87636 5.9375 3.125 5.9375ZM16.875 14.0625H3.125C2.87636 14.0625 2.6379 14.1613 2.46209 14.3371C2.28627 14.5129 2.1875 14.7514 2.1875 15C2.1875 15.2486 2.28627 15.4871 2.46209 15.6629C2.6379 15.8387 2.87636 15.9375 3.125 15.9375H16.875C17.1236 15.9375 17.3621 15.8387 17.5379 15.6629C17.7137 15.4871 17.8125 15.2486 17.8125 15C17.8125 14.7514 17.7137 14.5129 17.5379 14.3371C17.3621 14.1613 17.1236 14.0625 16.875 14.0625Z" fill="#F1F5F9"/>
<path d="M70.1633 16.8367L66.4531 13.125C67.5656 11.6754 68.0849 9.85688 67.9059 8.03841C67.7268 6.21993 66.8628 4.53765 65.489 3.33282C64.1152 2.12799 62.3345 1.49084 60.5082 1.55061C58.6819 1.61038 56.9467 2.3626 55.6547 3.65467C54.3626 4.94675 53.6104 6.68193 53.5506 8.50822C53.4908 10.3345 54.128 12.1152 55.3328 13.489C56.5376 14.8628 58.2199 15.7268 60.0384 15.9059C61.8569 16.0849 63.6754 15.5656 65.125 14.4531L68.8383 18.1672C68.9255 18.2544 69.029 18.3236 69.143 18.3708C69.2569 18.418 69.379 18.4423 69.5024 18.4423C69.6257 18.4423 69.7478 18.418 69.8617 18.3708C69.9757 18.3236 70.0792 18.2544 70.1664 18.1672C70.2536 18.08 70.3228 17.9765 70.37 17.8625C70.4172 17.7486 70.4415 17.6265 70.4415 17.5031C70.4415 17.3798 70.4172 17.2577 70.37 17.1438C70.3228 17.0298 70.2536 16.9263 70.1664 16.8391L70.1633 16.8367ZM55.4375 8.75002C55.4375 7.6993 55.7491 6.67218 56.3328 5.79855C56.9166 4.92491 57.7463 4.244 58.717 3.84191C59.6877 3.43981 60.7559 3.33461 61.7864 3.53959C62.817 3.74458 63.7636 4.25054 64.5065 4.99351C65.2495 5.73648 65.7555 6.68307 65.9604 7.7136C66.1654 8.74412 66.0602 9.81229 65.6581 10.783C65.256 11.7538 64.5751 12.5835 63.7015 13.1672C62.8278 13.7509 61.8007 14.0625 60.75 14.0625C59.3415 14.0611 57.9911 13.5009 56.9951 12.5049C55.9991 11.5089 55.439 10.1585 55.4375 8.75002Z" fill="#F1F5F9"/>
<path d="M118.031 10.5306L113.531 15.0306C113.39 15.1715 113.199 15.2507 112.999 15.2507C112.8 15.2507 112.609 15.1715 112.468 15.0306C112.327 14.8897 112.248 14.6986 112.248 14.4994C112.248 14.3001 112.327 14.109 112.468 13.9681L115.688 10.75H106.5C106.301 10.75 106.11 10.671 105.97 10.5303C105.829 10.3897 105.75 10.1989 105.75 9.99999C105.75 9.80108 105.829 9.61031 105.97 9.46966C106.11 9.329 106.301 9.24999 106.5 9.24999H115.688L112.469 6.02999C112.328 5.88909 112.249 5.69799 112.249 5.49874C112.249 5.29948 112.328 5.10838 112.469 4.96749C112.61 4.82659 112.801 4.74744 113.001 4.74744C113.2 4.74744 113.391 4.82659 113.532 4.96749L118.032 9.46749C118.102 9.53726 118.157 9.62016 118.195 9.71142C118.233 9.80269 118.252 9.90052 118.252 9.99931C118.252 10.0981 118.232 10.1959 118.194 10.2871C118.156 10.3782 118.101 10.461 118.031 10.5306Z" fill="#60A5FA"/>
</svg>
